<?xml version="1.0" ?><!DOCTYPE svg  PUBLIC '-//W3C//DTD SVG 1.1//EN'  'http://www.w3.org/Graphics/SVG/1.1/DTD/svg11.dtd'><svg enable-background="new 0 0 512 512" height="512px" id="Layer_1" version="1.1" viewBox="0 0 512 512" width="512px" xml:space="preserve" xmlns="http://www.w3.org/2000/svg" xmlns:xlink="http://www.w3.org/1999/xlink"><g><path d="M433.266,211.625c-32,0-66.5,0-66.5,0l18.125-83.875c0,0,46.813,0,63.875,0c41.438,0,51.25,20.375,51.25,36.5   C500.016,187.063,485.266,211.625,433.266,211.625z M475.266,283.75c0,22.813-14.75,47.375-66.75,47.375c-32,0-66.5,0-66.5,0   l18.125-83.938c0,0,46.813,0,63.813,0C465.391,247.188,475.266,267.688,475.266,283.75z M278.453,136.563c-32,0-66.438,0-66.438,0   l18.125-83.875c0,0,46.75,0,63.75,0c41.499,0,51.374,20.375,51.374,36.5C345.266,112,330.453,136.563,278.453,136.563z    M322.141,215.438c0,22.813-14.75,47.375-66.75,47.375c-31.969,0-66.438,0-66.438,0L207.047,179c0,0,46.813,0,63.844,0   C312.328,179,322.141,199.313,322.141,215.438z M297.453,346.938c0,22.875-14.75,47.375-66.625,47.375c-32.063,0-66.594,0-66.594,0   l18.125-83.938c0,0,46.813,0,63.875,0C287.641,310.375,297.453,330.813,297.453,346.938z M100.516,136.563   c-31.969,0-66.406,0-66.406,0l18.031-83.875c0,0,46.813,0,63.875,0c41.438,0,51.344,20.375,51.344,36.5   C167.359,112,152.516,136.563,100.516,136.563z M144.297,215.438c0,22.813-14.844,47.375-66.719,47.375   c-32.094,0-66.594,0-66.594,0L29.141,179c0,0,46.844,0,63.813,0C134.422,179,144.297,199.313,144.297,215.438z"/></g></svg>